<svg xmlns="http://www.w3.org/2000/svg" viewBox="0 0 56 88.75" fill="none" x="0px" y="0px"><path fill-rule="evenodd" clip-rule="evenodd" d="M54.8455 29.5361C55.0784 29.2996 55.2547 29.0283 55.3744 28.739C55.4966 28.4442 55.5641 28.121 55.5641 27.782C55.5641 27.4431 55.4966 27.1199 55.3744 26.8251C55.2547 26.5358 55.0784 26.2645 54.8455 26.028L54.8301 26.0126L29.5498 0.732234C28.5735 -0.244079 26.9906 -0.244077 26.0143 0.732234C25.9018 0.844704 25.8023 0.965223 25.7157 1.09194L0.735798 26.0107L0.724964 26.0216C0.276827 26.4734 0 27.0954 0 27.782C0 28.1206 0.0672925 28.4434 0.189231 28.7379C0.309177 29.0282 0.48615 29.3005 0.720173 29.5377L0.739531 29.5571C1.19135 30.0052 1.81337 30.282 2.50002 30.282H53.0641C53.6979 30.282 54.3318 30.0425 54.8181 29.5634C54.8273 29.5544 54.8364 29.5453 54.8455 29.5361ZM0.718619 40.746C0.485686 40.9824 0.309378 41.2538 0.1897 41.543C0.0674654 41.8378 2.45842e-06 42.161 2.42878e-06 42.5C2.39915e-06 42.839 0.0674653 43.1622 0.1897 43.457C0.309378 43.7462 0.485686 44.0176 0.718619 44.2541L0.733961 44.2695L26.0143 69.5498C26.9906 70.5261 28.5735 70.5261 29.5498 69.5498C29.6623 69.4374 29.7618 69.3168 29.8484 69.1901L54.8283 44.2713L54.8391 44.2605C55.2873 43.8087 55.5641 43.1867 55.5641 42.5C55.5641 42.1615 55.4968 41.8386 55.3749 41.5442C55.2549 41.2539 55.0779 40.9816 54.8439 40.7444L54.8246 40.725C54.3727 40.2768 53.7508 40 53.0641 40L2.5 40C1.86618 40 1.23235 40.2395 0.745959 40.7186C0.736777 40.7277 0.72766 40.7368 0.718619 40.746ZM27.7532 64.2177L8.53553 45L47.0181 45L27.7532 64.2177Z" fill="black"/><text x="0" y="86" fill="#000000" font-size="5px" font-weight="bold" font-family="'Helvetica Neue', Helvetica, Arial-Unicode, Arial, Sans-serif">Created by Michael</text><text x="0" y="91" fill="#000000" font-size="5px" font-weight="bold" font-family="'Helvetica Neue', Helvetica, Arial-Unicode, Arial, Sans-serif">from the Noun Project</text></svg>